<svg width="208" height="208" viewBox="0 0 208 208" fill="none" xmlns="http://www.w3.org/2000/svg">
<path d="M108.63 0.586426L114.355 1.13066C116.287 1.31431 117.687 1.97038 118.554 3.09886C119.422 4.22735 119.76 5.79291 119.57 7.79555L119.338 10.2341C119.148 12.2367 118.52 13.7104 117.456 14.6553C116.391 15.6001 114.893 15.9807 112.961 15.797L111.123 15.6224L110.166 25.6944L106.278 25.3249L108.63 0.586426ZM113.297 12.263C113.933 12.3234 114.421 12.1915 114.761 11.8672C115.124 11.5452 115.346 10.9601 115.427 10.1119L115.706 7.17862C115.787 6.33045 115.679 5.71398 115.382 5.32922C115.11 4.94669 114.655 4.7252 114.019 4.66473L112.182 4.49004L111.459 12.0883L113.297 12.263Z" fill="#F3F2F7"/>
<path d="M131.352 4.23008L136.408 5.78165L132.988 30.7256L129.255 29.5802L130.024 24.6545L130.003 24.7224L125.76 23.4207L123.655 27.862L120.193 26.7999L131.352 4.23008ZM130.551 21.3628L132.491 9.1099L132.423 9.08907L127.191 20.3319L130.551 21.3628Z" fill="#F3F2F7"/>
<path d="M149.399 10.8896L154.437 13.7356C156.189 14.725 157.234 15.8588 157.572 17.1371C157.921 18.3947 157.619 19.8683 156.664 21.558L155.914 22.8871C154.645 25.1332 153.1 26.136 151.279 25.8955L151.244 25.9573C151.928 26.6702 152.22 27.501 152.119 28.4497C152.039 29.41 151.638 30.5289 150.916 31.8065L148.768 35.6084C148.419 36.2265 148.155 36.743 147.975 37.1578C147.806 37.552 147.7 37.9811 147.655 38.4452L144.193 36.4896C144.268 36.0695 144.371 35.6932 144.505 35.3609C144.638 35.0285 144.932 34.4605 145.386 33.6568L147.621 29.7004C148.179 28.7113 148.405 27.9279 148.296 27.3501C148.208 26.784 147.773 26.2798 146.99 25.8375L145.815 25.174L140.577 34.4468L137.177 32.5262L149.399 10.8896ZM148.797 22.7814C149.477 23.1656 150.081 23.2756 150.609 23.1115C151.157 22.9591 151.664 22.4708 152.129 21.6465L153.072 19.9774C153.515 19.1944 153.691 18.5462 153.6 18.033C153.53 17.5313 153.196 17.1117 152.599 16.7742L151.053 15.9012L147.561 22.083L148.797 22.7814Z" fill="#F3F2F7"/>
<path d="M155.532 45.2038C154.132 43.9648 153.413 42.6171 153.374 41.1608C153.353 39.7202 153.986 38.2732 155.272 36.82L164.118 26.8242C165.404 25.3709 166.763 24.567 168.196 24.4126C169.646 24.2738 171.071 24.8239 172.471 26.063C173.871 27.3021 174.582 28.6419 174.603 30.0825C174.641 31.5388 174.018 32.9936 172.731 34.4469L170.99 36.4141L168.226 33.9674L170.131 31.814C171.151 30.662 171.173 29.6547 170.198 28.792C169.224 27.9294 168.227 28.0741 167.207 29.226L158.008 39.6206C157.004 40.7549 156.99 41.7533 157.964 42.616C158.939 43.4786 159.929 43.3428 160.932 42.2085L163.45 39.364L166.214 41.8108L163.885 44.4427C162.599 45.896 161.231 46.692 159.781 46.8308C158.348 46.9852 156.932 46.4429 155.532 45.2038Z" fill="#F3F2F7"/>
<path d="M183.576 37.6782L185.884 40.828L177.724 46.8084L180.2 50.1873L188.36 44.2068L190.669 47.3566L170.625 62.0454L168.316 58.8956L177.336 52.2857L174.86 48.9068L165.84 55.5168L163.532 52.367L183.576 37.6782Z" fill="#F3F2F7"/>
<path d="M197.289 59.3493L199.465 64.1703L178.482 78.0842L176.875 74.5251L181.08 71.8475L181.015 71.8767L179.189 67.8323L174.465 69.1865L172.975 65.8862L197.289 59.3493ZM183.899 70.0684L194.378 63.4287L194.349 63.364L182.453 66.8652L183.899 70.0684Z" fill="#F3F2F7"/>
<path d="M200.668 78.8961L199.742 74.9199L203.2 74.1152L205.936 85.8711L202.478 86.6757L201.553 82.6995L180.807 87.5272L179.922 83.7239L200.668 78.8961Z" fill="#F3F2F7"/>
<path d="M207.131 95.0273L207.483 105.671L203.935 105.789L203.712 99.0474L197.148 99.2643L197.325 104.622L193.777 104.739L193.6 99.3816L185.972 99.6337L186.194 106.375L182.646 106.492L182.295 95.8481L207.131 95.0273Z" fill="#F3F2F7"/>
<path d="M181.129 116.722C181.44 114.878 182.203 113.555 183.419 112.752C184.63 111.972 186.193 111.744 188.107 112.067L201.268 114.289C203.182 114.612 204.583 115.34 205.472 116.474C206.356 117.632 206.643 119.132 206.332 120.976C206.021 122.819 205.259 124.131 204.048 124.91C202.832 125.713 201.268 125.953 199.354 125.63L196.764 125.193L197.378 121.553L200.214 122.031C201.73 122.287 202.597 121.773 202.814 120.49C203.03 119.206 202.38 118.437 200.863 118.181L187.177 115.87C185.683 115.618 184.828 116.134 184.611 117.418C184.395 118.701 185.033 119.469 186.527 119.721L190.272 120.353L189.658 123.994L186.192 123.409C184.279 123.086 182.879 122.346 181.995 121.188C181.106 120.054 180.817 118.565 181.129 116.722Z" fill="#F3F2F7"/>
<path d="M202.318 136.603L200.857 140.224L191.475 136.438L189.907 140.322L199.289 144.109L197.828 147.73L174.784 138.43L176.245 134.809L186.615 138.994L188.183 135.109L177.813 130.924L179.274 127.303L202.318 136.603Z" fill="#F3F2F7"/>
<path d="M170.279 151.32C171.639 152.46 172.618 153.651 173.215 154.892C173.83 156.148 174.256 157.832 174.493 159.945C174.745 162.039 175.113 163.645 175.598 164.761C176.068 165.896 176.756 166.843 177.664 167.603C178.48 168.287 179.156 168.622 179.693 168.608C180.232 168.628 180.714 168.383 181.14 167.875C182.006 166.841 181.814 165.8 180.562 164.751L178.521 163.042L180.892 160.211L182.742 161.762C184.284 163.053 185.144 164.422 185.322 165.868C185.519 167.329 185.009 168.785 183.793 170.237C182.577 171.688 181.233 172.445 179.76 172.508C178.305 172.586 176.807 171.979 175.265 170.687C174.104 169.715 173.205 168.484 172.57 166.994C171.919 165.523 171.447 163.506 171.154 160.945C170.955 159.266 170.686 158.021 170.345 157.211C170.023 156.417 169.526 155.738 168.855 155.176L168.447 154.834L163.682 160.521L160.961 158.242L168.211 149.588L170.279 151.32Z" fill="#F3F2F7"/>
<path d="M152.316 165.408C153.83 164.232 155.323 163.762 156.794 163.997C158.266 164.232 159.611 165.135 160.831 166.705L168.845 177.022C170.065 178.592 170.607 180.119 170.471 181.603C170.335 183.087 169.51 184.417 167.996 185.593C166.483 186.769 164.99 187.239 163.518 187.004C162.047 186.769 160.701 185.866 159.482 184.296L151.467 173.979C150.248 172.409 149.706 170.882 149.842 169.398C149.977 167.914 150.802 166.584 152.316 165.408ZM154.494 168.211C153.429 169.039 153.397 170.098 154.399 171.387L162.718 182.097C163.72 183.386 164.753 183.617 165.819 182.79C166.884 181.962 166.916 180.903 165.914 179.614L157.595 168.904C156.593 167.615 155.559 167.384 154.494 168.211Z" fill="#F3F2F7"/>
<path d="M144.628 174.572C145.394 176.173 145.791 177.662 145.82 179.038C145.859 180.436 145.549 182.146 144.889 184.167C144.251 186.177 143.921 187.791 143.9 189.008C143.857 190.235 144.091 191.383 144.602 192.45C145.061 193.411 145.538 193.996 146.032 194.206C146.515 194.447 147.055 194.425 147.653 194.139C148.87 193.557 149.126 192.529 148.421 191.056L147.272 188.654L150.603 187.061L151.644 189.239C152.512 191.053 152.728 192.656 152.291 194.045C151.864 195.456 150.797 196.57 149.089 197.387C147.381 198.204 145.843 198.336 144.477 197.783C143.121 197.251 142.008 196.078 141.14 194.263C140.487 192.897 140.179 191.404 140.218 189.786C140.236 188.177 140.642 186.146 141.436 183.694C141.951 182.083 142.222 180.839 142.247 179.96C142.284 179.104 142.113 178.28 141.735 177.49L141.505 177.01L134.812 180.212L133.28 177.009L143.464 172.138L144.628 174.572Z" fill="#F3F2F7"/>
<path d="M122.341 179.954C124.184 179.522 125.711 179.71 126.922 180.52C128.138 181.353 128.976 182.749 129.435 184.708L129.881 186.609L126.287 187.451L125.776 185.274C125.409 183.707 124.568 183.078 123.255 183.386C121.941 183.694 121.468 184.631 121.836 186.198L123.108 191.624C123.481 193.214 124.324 193.855 125.638 193.547C126.951 193.239 127.421 192.29 127.048 190.7L127 190.493L130.594 189.65L133.072 203.326L123.049 205.676L122.238 202.22L128.874 200.664L127.832 194.819L127.763 194.835C127.324 196.178 126.367 197.022 124.893 197.368C123.51 197.692 122.351 197.466 121.415 196.688C120.479 195.911 119.801 194.624 119.379 192.827L118.099 187.366C117.639 185.407 117.769 183.785 118.489 182.498C119.213 181.234 120.497 180.386 122.341 179.954Z" fill="#F3F2F7"/>
<path d="M102.459 207.441L96.7205 207.065C94.784 206.938 93.3657 206.323 92.4655 205.221C91.5653 204.118 91.181 202.563 91.3125 200.556L91.4726 198.112C91.6041 196.104 92.188 194.613 93.2243 193.637C94.2607 192.662 95.7471 192.237 97.6836 192.364L99.5257 192.485L100.187 182.389L104.084 182.644L102.459 207.441ZM97.4515 195.906C96.8139 195.865 96.33 196.011 95.9998 196.345C95.6459 196.678 95.4412 197.269 95.3855 198.119L95.1929 201.059C95.1372 201.909 95.263 202.522 95.5704 202.898C95.8542 203.273 96.315 203.481 96.9526 203.523L98.7946 203.643L99.2936 196.027L97.4515 195.906Z" fill="#F3F2F7"/>
<path d="M79.6485 204.471L74.5477 203.07L77.2249 178.036L80.9905 179.07L80.3686 184.016L80.3874 183.948L84.6666 185.123L86.639 180.621L90.1307 181.579L79.6485 204.471ZM79.9395 187.322L78.3647 199.627L78.4331 199.646L83.3286 188.252L79.9395 187.322Z" fill="#F3F2F7"/>
<path d="M61.3999 198.346L56.2799 195.65C54.5 194.712 53.4222 193.61 53.0466 192.342C52.66 191.095 52.9188 189.613 53.823 187.896L54.5343 186.546C55.7362 184.263 57.251 183.215 59.0785 183.402L59.1116 183.339C58.4063 182.647 58.0901 181.825 58.1631 180.874C58.2151 179.911 58.5829 178.781 59.2666 177.483L61.3011 173.619C61.632 172.991 61.8812 172.467 62.0488 172.047C62.2054 171.648 62.2992 171.216 62.3302 170.751L65.8482 172.603C65.7864 173.025 65.6937 173.405 65.5702 173.741C65.4467 174.077 65.1699 174.653 64.7398 175.47L62.6226 179.491C62.0933 180.496 61.8914 181.285 62.0169 181.86C62.1215 182.423 62.5717 182.914 63.3674 183.333L64.561 183.962L69.5233 174.539L72.9785 176.358L61.3999 198.346ZM61.6505 186.441C60.9595 186.077 60.3527 185.985 59.8302 186.165C59.2867 186.333 58.7945 186.836 58.3534 187.674L57.4602 189.37C57.0411 190.166 56.8845 190.819 56.9902 191.329C57.0749 191.829 57.421 192.238 58.0282 192.558L59.5988 193.385L62.907 187.103L61.6505 186.441Z" fill="#F3F2F7"/>
<path d="M54.2569 164.225C55.6927 165.422 56.4511 166.748 56.5323 168.203C56.5953 169.642 56.0053 171.107 54.7622 172.597L46.2124 182.848C44.9694 184.338 43.6342 185.181 42.2069 185.378C40.7614 185.559 39.3208 185.051 37.885 183.853C36.4492 182.655 35.6998 181.337 35.6368 179.898C35.5557 178.443 36.1366 176.971 37.3797 175.48L39.0623 173.463L41.8975 175.828L40.0557 178.036C39.0704 179.217 39.0775 180.225 40.0771 181.059C41.0767 181.892 42.0691 181.719 43.0545 180.537L51.9453 169.878C52.9155 168.715 52.9008 167.716 51.9012 166.883C50.9016 166.049 49.9167 166.214 48.9465 167.377L46.5135 170.294L43.6783 167.929L45.9294 165.23C47.1725 163.74 48.5167 162.904 49.9622 162.723C51.3895 162.526 52.8211 163.027 54.2569 164.225Z" fill="#F3F2F7"/>
<path d="M26.4489 172.572L24.0492 169.491L32.0309 163.274L29.4567 159.969L21.4749 166.186L19.0753 163.106L38.6795 147.835L41.0792 150.916L32.2573 157.787L34.8315 161.092L43.6534 154.22L46.0531 157.301L26.4489 172.572Z" fill="#F3F2F7"/>
<path d="M12.1128 151.328L9.79402 146.574L30.355 132.043L32.0668 135.553L27.943 138.354L28.0068 138.323L29.9521 142.312L34.6346 140.818L36.2219 144.072L12.1128 151.328ZM25.1779 140.216L14.9005 147.164L14.9317 147.228L26.7186 143.375L25.1779 140.216Z" fill="#F3F2F7"/>
<path d="M8.15734 131.902L9.20097 135.849L5.76892 136.756L2.6834 125.087L6.11545 124.18L7.15908 128.126L27.7513 122.681L28.7496 126.457L8.15734 131.902Z" fill="#F3F2F7"/>
<path d="M1.21497 115.963L0.55049 105.333L4.09357 105.112L4.51441 111.844L11.0691 111.434L10.7347 106.084L14.2777 105.862L14.6122 111.212L22.2298 110.736L21.809 104.004L25.3521 103.783L26.0166 114.412L1.21497 115.963Z" fill="#F3F2F7"/>
<path d="M26.5735 93.4707C26.3164 95.3226 25.592 96.6676 24.4004 97.5056C23.2121 98.3203 21.6568 98.5941 19.7346 98.3272L6.51342 96.4912C4.5912 96.2243 3.16938 95.537 2.24797 94.4294C1.32981 93.2984 0.999313 91.8069 1.25648 89.955C1.51364 88.1031 2.23639 86.7699 3.42474 85.9552C4.61633 85.1172 6.17324 84.8316 8.09546 85.0985L10.6975 85.4599L10.1897 89.1168L7.34151 88.7213C5.8178 88.5097 4.96642 89.0485 4.78738 90.3378C4.60835 91.6271 5.28068 92.3776 6.8044 92.5892L20.553 94.4983C22.0532 94.7067 22.8929 94.1662 23.0719 92.8769C23.251 91.5876 22.5904 90.8388 21.0901 90.6305L17.3277 90.108L17.8355 86.4511L21.3166 86.9345C23.2388 87.2014 24.659 87.9004 25.5772 89.0314C26.4986 90.139 26.8307 91.6188 26.5735 93.4707Z" fill="#F3F2F7"/>
<path d="M4.80701 74.2285L6.16119 70.5658L15.6509 74.0744L17.1035 70.1454L7.61386 66.6368L8.96805 62.9741L32.276 71.5917L30.9218 75.2543L20.4332 71.3764L18.9806 75.3055L29.4691 79.1834L28.115 82.8461L4.80701 74.2285Z" fill="#F3F2F7"/>
<path d="M36.3938 58.5863C35.0003 57.4868 33.9872 56.3256 33.3543 55.1027C32.7029 53.8651 32.2278 52.1939 31.9291 50.0891C31.6157 48.0029 31.2003 46.4089 30.6828 45.3072C30.18 44.1869 29.4641 43.2603 28.5351 42.5273C27.6991 41.8676 27.0132 41.5524 26.4774 41.5819C25.9377 41.5781 25.4627 41.8364 25.0522 42.3566C24.2165 43.4156 24.4397 44.4509 25.7217 45.4624L27.8119 47.1117L25.5249 50.0101L23.6298 48.5148C22.0506 47.2686 21.1508 45.9256 20.9304 44.4855C20.6915 43.0308 21.1584 41.5603 22.3313 40.074C23.5041 38.5876 24.8257 37.7915 26.296 37.6855C27.7478 37.5649 29.2633 38.1276 30.8426 39.3737C32.0317 40.312 32.9656 41.5162 33.6445 42.9864C34.338 44.4381 34.8689 46.4397 35.2372 48.9913C35.485 50.664 35.7908 51.9002 36.1547 52.6998C36.5 53.4848 37.0164 54.1485 37.7038 54.6909L38.1219 55.0208L42.7178 49.1962L45.5047 51.3952L38.5118 60.2575L36.3938 58.5863Z" fill="#F3F2F7"/>
<path d="M53.9358 43.979C52.457 45.1989 50.9787 45.7127 49.5009 45.5205C48.0231 45.3283 46.6517 44.4655 45.3866 42.9319L37.0733 32.8543C35.8083 31.3208 35.2219 29.8103 35.3141 28.3229C35.4064 26.8355 36.1919 25.4819 37.6707 24.262C39.1494 23.0421 40.6277 22.5283 42.1055 22.7205C43.5833 22.9127 44.9548 23.7756 46.2198 25.3091L54.5331 35.3867C55.7982 36.9203 56.3846 38.4307 56.2923 39.9181C56.2 41.4055 55.4145 42.7591 53.9358 43.979ZM51.6767 41.2406C52.7173 40.3821 52.7181 39.323 51.6789 38.0634L43.0494 27.6024C42.0102 26.3427 40.9703 26.1421 39.9297 27.0005C38.8891 27.8589 38.8884 28.918 39.9275 30.1777L48.557 40.6387C49.5962 41.8984 50.6361 42.099 51.6767 41.2406Z" fill="#F3F2F7"/>
<path d="M61.3455 34.5976C60.5325 33.0198 60.0911 31.5433 60.0215 30.1681C59.941 28.7719 60.2006 27.054 60.8002 25.0144C61.3789 22.9856 61.6608 21.3627 61.646 20.1456C61.6522 18.9177 61.3843 17.7778 60.8423 16.7259C60.3544 15.7792 59.8606 15.2084 59.3607 15.0133C58.8711 14.7864 58.3317 14.8248 57.7426 15.1283C56.5435 15.7462 56.3179 16.781 57.0659 18.2326L58.2855 20.5993L55.0036 22.2905L53.8979 20.1447C52.9764 18.3565 52.7135 16.7613 53.1093 15.3593C53.4942 13.9363 54.5282 12.7911 56.2112 11.9238C57.8942 11.0566 59.4268 10.8792 60.8091 11.3916C62.1805 11.883 63.327 13.0228 64.2484 14.811C64.9423 16.1574 65.2937 17.6403 65.3029 19.2596C65.333 20.8682 64.9874 22.91 64.266 25.385C63.7989 27.0102 63.5654 28.262 63.5655 29.1406C63.5547 29.9981 63.7499 30.816 64.151 31.5944L64.3949 32.0678L70.9903 28.6692L72.6164 31.8248L62.5814 36.9959L61.3455 34.5976Z" fill="#F3F2F7"/>
<path d="M83.4526 28.5593C81.623 29.0464 80.0909 28.9032 78.8564 28.1298C77.6158 27.3335 76.7367 25.9634 76.2192 24.0194L75.7168 22.1326L79.2846 21.1828L79.8599 23.344C80.274 24.8992 81.1328 25.5033 82.4364 25.1562C83.74 24.8092 84.1848 23.858 83.7707 22.3029L82.3369 16.917C81.9167 15.3389 81.0549 14.7235 79.7513 15.0705C78.4477 15.4176 78.006 16.3801 78.4261 17.9581L78.4809 18.164L74.9131 19.1138L72.0283 5.51784L81.9767 2.86929L82.89 6.2998L76.3035 8.05332L77.5199 13.8645L77.5885 13.8462C77.987 12.4911 78.918 11.6187 80.3817 11.229C81.7539 10.8637 82.9193 11.0555 83.8779 11.8044C84.8365 12.5534 85.5533 13.8197 86.0282 15.6036L87.4712 21.0238C87.9888 22.9678 87.9073 24.5936 87.2268 25.9014C86.5403 27.1862 85.2822 28.0722 83.4526 28.5593Z" fill="#F3F2F7"/>
</svg>
