<svg width="28" height="22" viewBox="0 0 28 22" fill="none" xmlns="http://www.w3.org/2000/svg">
<path d="M23.3686 2.34561C23.361 2.33077 23.3483 2.31914 23.3328 2.3128C21.5458 1.49289 19.66 0.908233 17.7225 0.573456C17.7049 0.570183 17.6868 0.572544 17.6706 0.580202C17.6544 0.58786 17.641 0.600426 17.6324 0.616112C17.3756 1.08218 17.1425 1.56092 16.934 2.05049C14.8455 1.73346 12.7212 1.73346 10.6327 2.05049C10.4228 1.55968 10.186 1.08082 9.92329 0.616112C9.91428 0.600767 9.90086 0.58849 9.88477 0.580882C9.86869 0.573274 9.85068 0.570686 9.8331 0.573456C7.89547 0.90753 6.00952 1.49223 4.22273 2.31285C4.20743 2.31933 4.19453 2.3304 4.18579 2.34453C0.612556 7.68069 -0.366288 12.8856 0.1139 18.0261C0.115251 18.0387 0.119121 18.0509 0.125282 18.062C0.131442 18.0731 0.139766 18.0828 0.149759 18.0906C2.23042 19.6312 4.55767 20.8071 7.03218 21.5682C7.04961 21.5734 7.06822 21.5732 7.0855 21.5675C7.10279 21.5619 7.11793 21.551 7.12888 21.5365C7.66036 20.8134 8.13128 20.0476 8.53687 19.247C8.54244 19.2361 8.54562 19.224 8.5462 19.2117C8.54679 19.1994 8.54475 19.1871 8.54024 19.1757C8.53573 19.1642 8.52884 19.1538 8.52002 19.1452C8.51121 19.1366 8.50067 19.13 8.4891 19.1257C7.74649 18.8416 7.02755 18.4991 6.33904 18.1014C6.32653 18.094 6.31603 18.0837 6.30846 18.0713C6.30088 18.059 6.29647 18.0449 6.29561 18.0304C6.29476 18.0159 6.29748 18.0015 6.30354 17.9883C6.3096 17.9751 6.31882 17.9636 6.33037 17.9548C6.47484 17.8466 6.6194 17.734 6.75735 17.6203C6.76961 17.6102 6.78444 17.6037 6.80017 17.6016C6.81591 17.5995 6.83192 17.6018 6.84642 17.6083C11.3571 19.6669 16.2406 19.6669 20.698 17.6083C20.7125 17.6014 20.7287 17.5988 20.7447 17.6007C20.7606 17.6026 20.7757 17.609 20.7882 17.6192C20.9262 17.7329 21.0707 17.8466 21.2162 17.9548C21.2278 17.9635 21.2371 17.9749 21.2433 17.9881C21.2494 18.0012 21.2523 18.0157 21.2515 18.0301C21.2508 18.0446 21.2465 18.0587 21.239 18.0711C21.2315 18.0835 21.2211 18.0939 21.2086 18.1014C20.5217 18.5024 19.8021 18.8447 19.0575 19.1247C19.046 19.1291 19.0355 19.1359 19.0267 19.1446C19.018 19.1533 19.0111 19.1638 19.0067 19.1754C19.0023 19.1869 19.0004 19.1993 19.001 19.2116C19.0017 19.224 19.005 19.2361 19.0107 19.247C19.423 20.0432 19.8933 20.808 20.4176 21.5353C20.4282 21.5502 20.4433 21.5614 20.4606 21.5673C20.478 21.5731 20.4967 21.5734 20.5143 21.5681C22.9932 20.8095 25.3245 19.6335 27.4078 18.0906C27.4179 18.0832 27.4264 18.0737 27.4326 18.0628C27.4388 18.0519 27.4425 18.0397 27.4437 18.0272C28.0185 12.0843 26.4812 6.92197 23.3686 2.34561ZM9.21051 14.8961C7.85245 14.8961 6.73345 13.6498 6.73345 12.1193C6.73345 10.5887 7.83074 9.34236 9.21051 9.34236C10.6011 9.34236 11.7092 10.5995 11.6875 12.1192C11.6875 13.6498 10.5902 14.8961 9.21051 14.8961ZM18.3689 14.8961C17.0109 14.8961 15.8919 13.6498 15.8919 12.1193C15.8919 10.5887 16.9892 9.34236 18.3689 9.34236C19.7596 9.34236 20.8677 10.5995 20.846 12.1192C20.846 13.6498 19.7596 14.8961 18.3689 14.8961Z" fill="#F3F2F7"/>
</svg>
