<?xml version="1.0" encoding="UTF-8"?>
<svg xmlns="http://www.w3.org/2000/svg" width="659" height="478" fill="none">
  <g clip-path="url(#a)">
    <path fill="#000" d="M660.04 262.93a.84.84 0 0 1-.84.84H0v-1.68h659.2a.84.84 0 0 1 .84.84Z"></path>
    <path fill="#FFB6B6" d="M151.646 52.931c13.758 0 24.911-11.153 24.911-24.911 0-13.759-11.153-24.912-24.911-24.912-13.759 0-24.912 11.153-24.912 24.912 0 13.758 11.153 24.912 24.912 24.912Z"></path>
    <path fill="#FF950A" d="m164.847 52.188-32.791 9.369-4.684 10.54-10.54 50.356v79.635s-12.882 28.106-5.856 52.699c7.511 26.287 33.962-4.74 53.871-1.199 19.908 3.541 51.528 7.054 51.528 7.054l-18.738-85.489-4.684-104.228-28.106-18.737Z"></path>
    <path fill="#2F2E41" d="m158.659 36.178-5.065-2.533s-1.266-11.396-3.799-13.928c-2.532-2.532-2.532-3.799-2.532-3.799l3.798-5.064s-18.993 10.13-22.791 3.798c-3.799-6.33 1.266-8.863 1.266-8.863L123.205.724s7.597 5.065 8.863 1.266c1.267-3.798 8.864-6.376 8.864-6.376s16.59 3.754 15.259 0c-1.331-3.753 3.734.045 5 1.311 1.266 1.267 12.662 13.929 13.928 12.662 1.266-1.266 7.597 2.533 6.331 3.799s-1.266 2.532 0 3.799c1.266 1.266 8.864 15.194 2.533 20.259-6.331 5.065-15.195 11.396-13.929 16.46 1.267 5.065 0-16.46-11.395-17.726Z"></path>
    <path fill="#FFB6B6" d="M35.855 92.899c-6.394-5.512-8.732-13.279-5.224-17.347 3.508-4.069 11.534-2.898 17.93 2.616a21.125 21.125 0 0 1 5.915 8.036L81.272 109.9l-11.388 12.338-25.207-24.67a21.129 21.129 0 0 1-8.822-4.67Z"></path>
    <path fill="#FF950A" d="m127.653 72.5 17.651-1.605 15.48 73.826c2.949 14.067-6.272 27.801-20.409 30.396l-12.722 2.335-81.087-71.394 11.847-19.749 59.798 37.51 9.442-51.32Z"></path>
    <path fill="#FFB6B6" d="M88.246 406.812s-14 26-13 25 18 5 18 5l10-26-15-4ZM67.582 224.817s-7.166 28.647-6.443 27.431c.723-1.215 18.677.414 18.677.414L83.106 225l-15.524-.183Z"></path>
    <path fill="#2F2E41" d="M192.246 220c-31.638 4.445-60.215.569-83.5-17.688 0 0-17 57 14 63s65.5-4.312 69.5-14.312 0-31 0-31Z"></path>
    <path fill="#2F2E41" d="m133.246 238-34.5 81.312-16 94 21 5 37.563-86.5L192.246 249l-59-11ZM128.746 214.812s-8-62-23-66c-7.313-1.95-14.15-1.761-19.237-1.055-5.128.712-9.216 4.629-10.112 9.728L62.766 235H82.04l6.205-21 16.5 28.813 24-28.001ZM79.746 244.812l-19.059-2-2.94 11s-31 28-15 30 31-9 31-9l22.009-12.625s-8.51-22.687-14.51-22.687-1.5 5.312-1.5 5.312ZM89.746 432.312l-19.059-2-2.94 11s-31 28-15 30 31-9 31-9l22.009-12.625S104.246 426 98.246 426s-8.5 6.312-8.5 6.312Z"></path>
    <path fill="#FFB6B6" d="M186.248 274.928c-2.298 7.882-8.227 13.085-13.242 11.621-5.016-1.463-7.218-9.037-4.918-16.921a20.55 20.55 0 0 1 4.725-8.476l10.158-33.271 15.511 5.1-11.661 32.258a20.54 20.54 0 0 1-.573 9.689Z"></path>
    <path fill="#FF950A" d="m196.985 71.07-8.088-2.28a92.043 92.043 0 0 0-9.476 49.085l3.992 47.22-13.171 82.998 25.816 6.679 20.344-104.158-19.417-79.544Z"></path>
    <path fill="#F2F2F7" d="m19.592 91.86-1.128-35.592a2.065 2.065 0 0 1 .623-1.544 2.067 2.067 0 0 1 1.561-.58l28.244 1.694c.571.034 1.106.307 1.47.749.362.44.527 1.019.45 1.585l-4.778 35.376a2.067 2.067 0 0 1-2.18 1.781l-22.337-1.477a2.055 2.055 0 0 1-1.925-1.992Z"></path>
    <path fill="#3F3D56" d="M18.5 52.938c.394-.042.924-.093 1.56-.146-.17-.317-.24-.69-.168-1.075l.505-2.666a1.632 1.632 0 0 1 1.386-1.315c4.159-.556 18.463-2.065 27.47 2.021.563.256.926.817.944 1.436l.082 2.844c.01.352-.092.678-.27.948.748.201 1.494.414 2.235.646.464.146.796.555.851 1.038l.14 1.212a1.238 1.238 0 0 1-1.313 1.377l-33.767-2.28a1.238 1.238 0 0 1-1.118-1.533l.389-1.573c.125-.507.554-.88 1.073-.934Z"></path>
    <path fill="#A0616A" d="M247.103 408.812s-14 26-13 25 18 5 18 5l10-26-15-4Z"></path>
    <path fill="#2F2E41" d="M351.103 222c-31.639 4.445-60.216.569-83.5-17.688 0 0-17 57 14 63s65.5-4.312 69.5-14.312 0-31 0-31Z"></path>
    <path fill="#2F2E41" d="m292.103 240-34.5 81.312-16 94 21 5 37.563-86.5L351.103 251l-59-11ZM248.603 434.312l-19.059-2-2.941 11s-31 28-15 30 31-9 31-9l22.01-12.625S263.103 428 257.103 428s-8.5 6.312-8.5 6.312Z"></path>
    <path fill="#A0616A" d="M278.714 395.133s-5.296 29.051-4.653 27.791c.643-1.259 18.665-.797 18.665-.797l1.491-27.816-15.503.822Z"></path>
    <path fill="#2F2E41" d="m269.44 220.672-7.732 87.99 13.78 94.351 21.518-1.723 9.045-93.869 22.905-94.487-59.516 7.738ZM288.008 418.927l-18.746 3.977.596 11.371s-20.85 36.198-5.013 33.164c15.836-3.034 26.711-18.125 26.711-18.125l17.041-18.8s-8.744-22.065-14.451-20.214c-5.707 1.851-6.138 8.627-6.138 8.627ZM287.472 38.543s-9.536 5.593-6.409 11.124c3.128 5.531 7.488 13.065 4.53 15.438-2.958 2.373-7.842 12.834-7.842 12.834s-20.845-2.912-18.888 13.28c1.957 16.193 11.75 18.401 3.356 25.524-8.393 7.124 8.724 15.644 8.724 15.644s11.817-3.683 14.513-15.007c2.696-11.324-2.404 8.659-.694 10.092 1.711 1.432 8.351 10.877 13.05-1.68s.046-17.425 6.255-24.836c6.208-7.41 10.43-19.397 10.245-21.493-.185-2.095 7.102-21.215-4.114-28.672-11.217-7.456-22.726-12.248-22.726-12.248Z"></path>
    <path fill="#A0616A" d="M291.853 83.008 285.103 107h37.047l-12.199-29.562-18.098 5.57Z"></path>
    <path fill="#000" d="M291.853 83.008 285.103 107h37.047l-12.199-29.562-18.098 5.57Z" opacity=".1"></path>
    <path fill="#A0616A" d="M372.645 260.149c.479 7.172-2.834 13.231-7.398 13.535-4.564.304-8.65-5.263-9.128-12.437-.23-2.863.229-5.74 1.339-8.389l-1.643-30.411 14.288-.467.102 30.029a17.981 17.981 0 0 1 2.44 8.14Z"></path>
    <path fill="#9155F5" d="M329.624 141.531s.79-22.366 9.301-23.739c8.512-1.373 20.02 8.72 20.02 8.72l17.581 72.825-2.683 45.76-19.241-1.087-4.516-43.354-20.462-59.125Z"></path>
    <path fill="#9155F5" d="M282.103 99h34.952l38.048 26 11 91-6 18-11 21s11-46-16-28l-.803.536c-17.38 11.608-40.314 10.416-56.402-2.925L263.103 214l7-35-5.5-64.5 17.5-15.5Z"></path>
    <path fill="#A0616A" d="M194.642 212.93c-5.606 4.497-12.471 5.251-15.333 1.683-2.862-3.569-.637-10.106 4.972-14.605a17.992 17.992 0 0 1 7.644-3.705l23.994-18.758 8.562 11.447-24.562 17.277a17.997 17.997 0 0 1-5.277 6.661Z"></path>
    <path fill="#9155F5" d="M267.266 109.746s18.79-12.157 24.789-5.965c5.998 6.193 4.312 21.407 4.312 21.407l-49.644 56.108-39.054 23.998-10.125-16.398 32.96-28.523 36.762-50.627Z"></path>
    <path fill="#A0616A" d="M300.655 88.222c12.321 0 22.31-9.99 22.31-22.311 0-12.322-9.989-22.31-22.31-22.31-12.322 0-22.311 9.988-22.311 22.31s9.989 22.31 22.311 22.31Z"></path>
    <path fill="#2F2E41" d="M289.548 50.956S286.261 40 291.739 40s27.391 1.096 29.582 3.287c2.191 2.191 28.12 24.183 12.782 41.713-15.339 17.53 0 26 0 26s11.322 26.511.365 28.702c-10.956 2.191-55.897-10.338-44.92-30.678 11.912-22.072 17.455-56.91 0-58.068Z"></path>
    <path fill="#F2F2F7" d="m167.16 204.692-1.129-35.592a2.067 2.067 0 0 1 .624-1.544 2.067 2.067 0 0 1 1.56-.58l28.245 1.694a2.063 2.063 0 0 1 1.919 2.334l-4.778 35.376a2.067 2.067 0 0 1-2.179 1.782l-22.338-1.478a2.052 2.052 0 0 1-1.924-1.992Z"></path>
    <path fill="#3F3D56" d="M166.066 165.77c.396-.042.925-.093 1.56-.146a1.622 1.622 0 0 1-.166-1.075l.504-2.666a1.63 1.63 0 0 1 1.386-1.315c4.159-.556 18.463-2.065 27.47 2.021.564.256.926.817.944 1.436l.082 2.844c.011.352-.092.678-.271.948.749.201 1.495.414 2.236.646.464.146.796.555.852 1.038l.139 1.212a1.238 1.238 0 0 1-1.313 1.377l-33.766-2.28a1.238 1.238 0 0 1-1.119-1.533l.389-1.573a1.239 1.239 0 0 1 1.073-.934Z"></path>
    <path fill="#2F2E41" d="M475.054 38.543s9.536 5.593 6.409 11.124c-3.128 5.531-7.488 13.065-4.53 15.438 2.958 2.373 7.841 12.834 7.841 12.834s20.846-2.912 18.889 13.28c-1.957 16.193-11.75 18.401-3.356 25.524 8.393 7.124-8.724 15.644-8.724 15.644s-11.817-3.683-14.513-15.007c-2.696-11.324 2.404 8.659.693 10.092-1.71 1.432-8.35 10.877-13.049-1.68s-.046-17.425-6.255-24.836c-6.209-7.41-10.43-19.397-10.245-21.493.185-2.095-7.102-21.215 4.114-28.672 11.217-7.456 22.726-12.248 22.726-12.248Z"></path>
    <path fill="#FFB6B6" d="M568.99 214.233c5.537 4.583 12.39 5.44 15.305 1.916 2.916-3.524.791-10.095-4.749-14.678a17.965 17.965 0 0 0-7.587-3.821l-23.706-19.12-8.735 11.315 24.297 17.648a17.98 17.98 0 0 0 5.175 6.74Z"></path>
    <path fill="#48484A" d="M497.943 109.958s-18.604-12.442-24.696-6.341c-6.092 6.101-4.637 21.338-4.637 21.338l48.786 56.856 38.684 24.59 10.373-16.243-32.522-29.021-35.988-51.179Z"></path>
    <path fill="#FFB6B6" d="m470.673 83.008 6.75 23.992h-37.047l12.199-29.562 18.098 5.57Z"></path>
    <path fill="#000" d="m470.673 83.008 6.75 23.992h-37.047l12.199-29.562 18.098 5.57Z" opacity=".1"></path>
    <path fill="#FFB6B6" d="M389.881 260.149c-.479 7.172 2.834 13.231 7.398 13.535 4.564.304 8.65-5.263 9.127-12.437a17.969 17.969 0 0 0-1.338-8.389l1.643-30.411-14.288-.467-.102 30.029a17.981 17.981 0 0 0-2.44 8.14Z"></path>
    <path fill="#48484A" d="M432.902 141.531s-.79-22.366-9.302-23.739c-8.511-1.373-20.019 8.72-20.019 8.72L386 199.337l2.682 45.76 19.242-1.087 4.516-43.354 20.462-59.125Z"></path>
    <path fill="#FFB6B6" d="M515.423 408.812s14 26 13 25-18 5-18 5l-10-26 15-4ZM536.087 226.817s7.166 28.647 6.443 27.431c-.723-1.215-18.677.414-18.677.414L520.564 227l15.523-.183Z"></path>
    <path fill="#48484A" d="M480.423 99H445.47l-38.047 26-11 91 6 18 11 21s-11-46 16-28 29 21 29 21l36-18 13.5-74.5-10-41-17.5-15.5Z"></path>
    <path fill="#2F2E41" d="M411.423 222c31.638 4.445 60.215.569 83.5-17.688 0 0 17 57-14 63s-65.5-4.312-69.5-14.312 0-31 0-31Z"></path>
    <path fill="#2F2E41" d="m470.423 240 34.5 81.312 16 94-21 5-37.563-86.5L411.423 251l59-11ZM474.923 216.812s8-62 23-66c7.313-1.95 14.15-1.761 19.237-1.055 5.128.712 9.216 4.629 10.112 9.728L540.903 237h-19.275l-6.205-21-16.5 28.813-24-28.001ZM523.923 246.812l19.059-2 2.941 11s31 28 15 30-31-9-31-9l-22.01-12.625s8.51-22.687 14.51-22.687 1.5 5.312 1.5 5.312ZM513.923 434.312l19.059-2 2.941 11s31 28 15 30-31-9-31-9l-22.01-12.625s1.51-23.687 7.51-23.687 8.5 6.312 8.5 6.312Z"></path>
    <path fill="#FFB6B6" d="M461.871 88.222c12.322 0 22.311-9.99 22.311-22.311 0-12.322-9.989-22.31-22.311-22.31s-22.31 9.988-22.31 22.31 9.988 22.31 22.31 22.31Z"></path>
    <path fill="#2F2E41" d="M470.424 40.997s3.718 10.412-2.231 12.643c-5.95 2.231-14.13 5.206-13.387 8.924.744 3.719-2.231 14.874-2.231 14.874s17.849 11.155 5.95 22.31c-11.899 11.156-20.824 6.559-18.964 17.41 1.859 10.851-16.733 6.389-16.733 6.389s-6.694-10.412-1.488-20.824c5.206-10.411-3.718 8.181-5.949 8.181s-13.387 2.975-8.924-9.668c4.462-12.643 11.155-13.386 11.155-23.054s4.462-21.567 5.949-23.055c1.488-1.487 8.181-20.823 21.567-19.335 13.387 1.487 25.286 5.205 25.286 5.205Z"></path>
    <path fill="#F2F2F7" d="m553.48 213.692-1.128-35.592a2.062 2.062 0 0 1 2.184-2.124l28.244 1.694a2.065 2.065 0 0 1 1.92 2.334l-4.778 35.376a2.069 2.069 0 0 1-2.18 1.782l-22.337-1.478a2.055 2.055 0 0 1-1.925-1.992Z"></path>
    <path fill="#3F3D56" d="M552.387 174.77c.395-.042.924-.093 1.56-.146a1.622 1.622 0 0 1-.167-1.075l.504-2.666a1.631 1.631 0 0 1 1.387-1.315c4.158-.556 18.462-2.065 27.469 2.021.564.256.926.817.944 1.436l.083 2.844c.01.352-.092.678-.271.948.748.201 1.495.414 2.235.646.464.146.796.555.852 1.038l.14 1.212a1.239 1.239 0 0 1-1.314 1.377l-33.766-2.28a1.238 1.238 0 0 1-1.119-1.533l.389-1.573a1.241 1.241 0 0 1 1.074-.934Z"></path>
  </g>
  <defs>
    <clipPath id="a">
      <path fill="#fff" d="M0 0h660.04v477.556H0z"></path>
    </clipPath>
  </defs>
</svg>
