<svg xmlns="http://www.w3.org/2000/svg" width="533" height="262" fill="none">
  <path stroke="#000" stroke-width="3" d="M75.135 132c-51.908 34.788-80.564 70.69-71.464 96.457 15.604 44.179 136.297 41.835 269.576-5.237 72.236-25.513 133.344-58.929 171.682-91.22h-1.556a298.337 298.337 0 0 1-8.373 6.732c-38.453 29.819-95.52 60.035-162.086 83.545-66.567 23.51-129.952 35.836-178.603 36.781-24.33.473-44.918-1.903-60.359-7.109-15.455-5.212-25.583-13.195-29.338-23.825-3.754-10.63-.886-23.204 7.868-36.966 8.746-13.749 23.275-28.527 42.506-43.439 6.758-5.24 14.09-10.493 21.948-15.719h-1.8Z"/>
  <path stroke="#F2F2F7" stroke-width="3" d="M447.794 129.617c51.908-34.789 80.564-70.69 71.464-96.457-15.604-44.18-136.297-41.835-269.576 5.237C177.446 63.91 116.338 97.325 78 129.617h1.556a299.59 299.59 0 0 1 8.374-6.733c38.452-29.818 95.519-60.034 162.086-83.544C316.582 15.83 379.967 3.504 428.618 2.559c24.33-.473 44.918 1.902 60.359 7.109 15.455 5.211 25.583 13.195 29.338 23.825 3.754 10.63.886 23.204-7.868 36.965-8.746 13.75-23.275 28.527-42.506 43.44-6.758 5.24-14.09 10.492-21.948 15.719h1.801Z"/>
  <path stroke="#FF950A" stroke-linecap="round" stroke-width="4" d="m496.625 33.703 31.797-19.836M522.762 39.758 502.926 7.96M497.611 20.587l31.174 7.222M516.809 8.61l-7.222 31.175"/>
</svg>
