<svg width="30" height="31" viewBox="0 0 30 31" fill="none" xmlns="http://www.w3.org/2000/svg">
<path d="M20.8163 2.521C22.6025 2.521 24.3155 3.23055 25.5785 4.49355C26.8415 5.75655 27.551 7.46954 27.551 9.2557V20.8883C27.551 22.6745 26.8415 24.3875 25.5785 25.6505C24.3155 26.9135 22.6025 27.623 20.8163 27.623H9.18367C7.39752 27.623 5.68453 26.9135 4.42153 25.6505C3.15853 24.3875 2.44898 22.6745 2.44898 20.8883V9.2557C2.44898 7.46954 3.15853 5.75655 4.42153 4.49355C5.68453 3.23055 7.39752 2.521 9.18367 2.521H20.8163ZM20.8163 0.0720215H9.18367C6.75025 0.0792891 4.41856 1.04919 2.69786 2.76989C0.977164 4.49059 0.00726762 6.82227 0 9.2557V20.8883C0.00726762 23.3218 0.977164 25.6535 2.69786 27.3742C4.41856 29.0949 6.75025 30.0648 9.18367 30.072H20.8163C23.2498 30.0648 25.5814 29.0949 27.3021 27.3742C29.0228 25.6535 29.9927 23.3218 30 20.8883V9.2557C29.9927 6.82227 29.0228 4.49059 27.3021 2.76989C25.5814 1.04919 23.2498 0.0792891 20.8163 0.0720215Z" fill="#F3F2F7"/>
<path d="M23.002 5.27612C22.6551 5.27612 22.3159 5.379 22.0275 5.57174C21.739 5.76448 21.5142 6.03843 21.3814 6.35895C21.2487 6.67946 21.2139 7.03215 21.2816 7.37241C21.3493 7.71267 21.5164 8.02522 21.7617 8.27053C22.007 8.51584 22.3195 8.6829 22.6598 8.75058C23.0001 8.81826 23.3527 8.78353 23.6733 8.65076C23.9938 8.518 24.2677 8.29318 24.4605 8.00472C24.6532 7.71626 24.7561 7.37713 24.7561 7.0302C24.7561 6.79986 24.7107 6.57176 24.6226 6.35895C24.5344 6.14613 24.4052 5.95276 24.2423 5.78988C24.0794 5.627 23.8861 5.49779 23.6733 5.40964C23.4605 5.32149 23.2324 5.27612 23.002 5.27612Z" fill="#F3F2F7"/>
<path d="M15.0826 9.70583C16.1533 9.70523 17.2002 10.0222 18.0907 10.6167C18.9812 11.2112 19.6754 12.0564 20.0854 13.0455C20.4954 14.0346 20.6028 15.123 20.3941 16.1732C20.1854 17.2234 19.6698 18.188 18.9127 18.9451C18.1556 19.7022 17.191 20.2177 16.1408 20.4265C15.0907 20.6352 14.0022 20.5278 13.0131 20.1178C12.024 19.7077 11.1788 19.0136 10.5843 18.123C9.98984 17.2325 9.67286 16.1857 9.67346 15.115C9.67589 13.6812 10.2466 12.3067 11.2605 11.2928C12.2743 10.2789 13.6488 9.70826 15.0826 9.70583ZM15.0826 7.25685C13.5284 7.25988 12.0099 7.72358 10.719 8.58935C9.42822 9.45513 8.42301 10.6841 7.83045 12.121C7.23789 13.5579 7.08457 15.1382 7.38988 16.6622C7.69518 18.1862 8.44539 19.5855 9.54572 20.6833C10.646 21.781 12.0471 22.528 13.5718 22.8297C15.0965 23.1315 16.6765 22.9745 18.112 22.3785C19.5475 21.7826 20.7741 20.7746 21.6369 19.4817C22.4996 18.1889 22.9598 16.6693 22.9592 15.115C22.9588 14.0816 22.7546 13.0585 22.3584 12.1041C21.9622 11.1496 21.3818 10.2827 20.6502 9.55285C19.9186 8.82299 19.0503 8.24453 18.095 7.85056C17.1397 7.45659 16.116 7.25484 15.0826 7.25685Z" fill="#F3F2F7"/>
</svg>
