<svg width="31" height="31" viewBox="0 0 31 31" fill="none" xmlns="http://www.w3.org/2000/svg">
<path d="M16.4749 14.4131V14.3723C16.4664 14.3861 16.4576 14.3997 16.4485 14.4131H16.4749Z" fill="white"/>
<path d="M26.6318 2.54175H4.34329C3.27649 2.54175 2.41131 3.3863 2.41131 4.42717V26.9765C2.41131 28.0169 3.27649 28.8614 4.34329 28.8614H26.6318C27.7001 28.8614 28.5653 28.0163 28.5653 26.9765V4.42717C28.5653 3.38577 27.6996 2.54175 26.6318 2.54175ZM10.3387 24.5746H6.38852V12.6901H10.3387V24.5746ZM8.3639 11.0666H8.33744C7.01241 11.0666 6.15516 10.1538 6.15516 9.01345C6.15516 7.84769 7.03886 6.96028 8.38982 6.96028C9.74131 6.96028 10.5726 7.84769 10.5991 9.01345C10.5991 10.1538 9.74078 11.0666 8.3639 11.0666ZM24.5834 24.5746H20.6331V18.2151C20.6331 16.6181 20.0616 15.528 18.6324 15.528C17.5412 15.528 16.8914 16.263 16.6051 16.9732C16.5009 17.2266 16.4755 17.5812 16.4755 17.9368V24.5741H12.5253C12.5253 24.5741 12.5771 13.8035 12.5253 12.6896H16.4755V14.3718C17.0004 13.5622 17.9392 12.4091 20.0362 12.4091C22.635 12.4091 24.5839 14.1083 24.5839 17.759L24.5834 24.5746Z" fill="white"/>
</svg>
