<svg xmlns="http://www.w3.org/2000/svg" id="Layer_2" viewBox="0 0 914.64 1038">
  <defs>
    <style>
      .cls-1{fill:#fff}.cls-3{fill:#010a0e}.cls-4{fill:#f3f2f7}
    </style>
  </defs>
  <g id="Layer_1-2" data-name="Layer_1">
    <path d="M862.93 310.92V726.2a46.56 46.56 0 0 1-23.28 40.33L480.01 974.17a46.57 46.57 0 0 1-46.57 0L73.8 766.53a46.57 46.57 0 0 1-23.29-40.33V310.92a46.57 46.57 0 0 1 23.29-40.33L433.44 62.95a46.57 46.57 0 0 1 46.57 0l359.64 207.64a46.56 46.56 0 0 1 23.28 40.33Z" class="cls-4"/>
    <path d="M457.32 1024c-7.82 0-15.54-2.07-22.32-5.98L36.31 787.84C22.55 779.9 14 765.08 14 749.18V288.82c0-15.9 8.55-30.71 22.31-38.66L435 19.98c6.78-3.91 14.5-5.98 22.32-5.98s15.54 2.07 22.32 5.98l398.69 230.18c13.76 7.94 22.31 22.76 22.31 38.66v460.36c0 15.9-8.55 30.71-22.31 38.66l-398.69 230.18a44.749 44.749 0 0 1-22.32 5.98Zm-.6-974.29c-9.39 0-18.65 2.48-26.78 7.18L70.3 264.53c-16.53 9.54-26.79 27.32-26.79 46.39V726.2c0 19.07 10.27 36.85 26.79 46.39l359.64 207.64c8.13 4.7 17.39 7.18 26.78 7.18s18.65-2.48 26.79-7.18l359.64-207.64c16.52-9.54 26.78-27.31 26.78-46.39V310.92c0-19.08-10.26-36.86-26.78-46.39L483.51 56.89c-8.14-4.7-17.4-7.18-26.79-7.18Z" class="cls-3"/>
    <path d="M457.32 21c6.59 0 13.1 1.75 18.82 5.04l398.69 230.18c11.6 6.7 18.81 19.19 18.81 32.6v460.36c0 13.41-7.21 25.9-18.81 32.6l-398.69 230.18c-5.72 3.3-12.23 5.05-18.82 5.05s-13.1-1.74-18.82-5.04L39.81 781.78c-11.6-6.7-18.81-19.19-18.81-32.6V288.82c0-13.41 7.21-25.9 18.81-32.6L438.5 26.05c5.72-3.3 12.23-5.05 18.82-5.05m-.6 973.41c10.61 0 21.09-2.81 30.29-8.12l359.64-207.64c18.68-10.78 30.28-30.88 30.28-52.45V310.92c0-21.57-11.6-41.67-30.28-52.45L487.01 50.82c-9.2-5.31-19.67-8.11-30.29-8.11s-21.09 2.81-30.28 8.12L66.8 258.47c-18.68 10.79-30.29 30.89-30.29 52.45V726.2c0 21.57 11.61 41.67 30.29 52.45l359.64 207.64a60.604 60.604 0 0 0 30.28 8.12M457.32 7c-8.91 0-17.83 2.31-25.82 6.92L32.81 244.1A51.637 51.637 0 0 0 7 288.82v460.36c0 18.45 9.84 35.5 25.81 44.72l398.69 230.18c7.99 4.61 16.91 6.92 25.82 6.92s17.83-2.31 25.82-6.92L881.83 793.9a51.637 51.637 0 0 0 25.81-44.72V288.82c0-18.45-9.84-35.5-25.81-44.72L483.14 13.92A51.651 51.651 0 0 0 457.32 7Zm-.6 973.41c-8.04 0-16.08-2.08-23.28-6.24L73.8 766.53a46.57 46.57 0 0 1-23.29-40.33V310.92a46.57 46.57 0 0 1 23.29-40.33L433.44 62.95a46.57 46.57 0 0 1 46.57 0l359.64 207.64a46.56 46.56 0 0 1 23.28 40.33V726.2a46.56 46.56 0 0 1-23.28 40.33L480.01 974.17a46.57 46.57 0 0 1-23.29 6.24Z" class="cls-3"/>
    <path d="M457.32 1024.47a39.62 39.62 0 0 1-19.79-5.3L34.06 786.22c-12.21-7.05-19.79-20.18-19.79-34.27v-465.9c0-14.09 7.58-27.22 19.79-34.27L437.53 18.83c6.01-3.47 12.85-5.3 19.79-5.3s13.78 1.83 19.79 5.3l403.47 232.95c12.21 7.05 19.79 20.18 19.79 34.27V709.3h-29.84V311.36c0-19.07-10.27-36.85-26.79-46.39L484.11 57.33c-8.13-4.7-17.4-7.18-26.79-7.18s-18.66 2.48-26.79 7.18L70.9 264.97c-16.52 9.54-26.79 27.32-26.79 46.39v415.27c0 19.08 10.27 36.86 26.79 46.4l359.63 207.64c8.14 4.69 17.4 7.17 26.79 7.17s18.65-2.48 26.79-7.17l18.66-10.77h59.68l-85.34 49.27a39.62 39.62 0 0 1-19.79 5.3Z" class="cls-3"/>
    <path d="M457.32 20.53c5.71 0 11.34 1.51 16.29 4.36l403.47 232.95c10.05 5.8 16.29 16.61 16.29 28.21V702.3h-15.84V311.36c0-21.57-11.61-41.67-30.29-52.45L487.61 51.27c-9.2-5.31-19.67-8.12-30.29-8.12s-21.09 2.81-30.29 8.12L67.4 258.91c-18.68 10.79-30.29 30.89-30.29 52.45v415.27c0 21.57 11.61 41.68 30.29 52.46l359.64 207.64c9.19 5.3 19.67 8.1 30.28 8.1s21.09-2.8 30.29-8.11l17.03-9.83h31.68l-62.71 36.21c-4.95 2.85-10.58 4.36-16.29 4.36s-11.34-1.51-16.29-4.36L37.56 780.16c-10.05-5.8-16.29-16.61-16.29-28.21v-465.9c0-11.6 6.24-22.4 16.29-28.21L441.03 24.89a32.587 32.587 0 0 1 16.29-4.36m0-14a46.57 46.57 0 0 0-23.29 6.24L30.56 245.72a46.57 46.57 0 0 0-23.29 40.33v465.9a46.57 46.57 0 0 0 23.29 40.33l403.47 232.95c7.21 4.16 15.25 6.24 23.29 6.24s16.08-2.08 23.29-6.24l105.67-61.01c.63-.36.37-1.32-.35-1.32h-83.67c-.89 0-1.77.23-2.54.68l-19.1 11.03c-7.21 4.16-15.25 6.23-23.29 6.23s-16.08-2.08-23.29-6.23L74.41 766.97a46.586 46.586 0 0 1-23.29-40.34V311.36a46.57 46.57 0 0 1 23.29-40.33L434.03 63.39c7.21-4.16 15.25-6.24 23.29-6.24s16.08 2.08 23.29 6.24l359.63 207.64a46.57 46.57 0 0 1 23.29 40.33v402.37a2.57 2.57 0 0 0 2.57 2.57h38.69a2.57 2.57 0 0 0 2.57-2.57V286.05a46.57 46.57 0 0 0-23.29-40.33L480.61 12.77a46.57 46.57 0 0 0-23.29-6.24Z" class="cls-3"/>
    <path fill="#010a0e" stroke="#f3f2f7" stroke-miterlimit="10" stroke-width="4" d="M524.68 287.39s-4.28-19.03 5.62-30.32c9.9-11.3 9.56-25.36 25.91-19.32 16.35 6.04 53.08 34.25 44.09 74.66 0 0-2.58 10.23-9.67 18.54-7.09 8.32-50.2-17.98-54.42-22.93-4.22-4.95-11.54-20.63-11.54-20.63Z"/>
    <path d="M676.01 394.41c.2-.03.5-.26 1.26-.79 6.62-4.59 15.13-16.38 18.42-23.31 5.76-12.13 8.14-42.13 6.74-44.37-1.01-1.61-2.85-2.63-4.74-3.1-2.79-.69-5.88-.57-8.69-.21-13.54 1.74-26.86 7.63-38.53 14.11-4.28 2.38-8.61 5.16-10.81 9.4-3.17 6.11-2.17 19.42 2.46 25.09 4.18 5.12 10.6 8.74 16.22 12.18 5.24 3.21 10.69 7.49 16.21 10.12 1.08.51 1.16.91 1.45.86Z" class="cls-1"/>
    <path d="M685.77 312.7c-10.77 2.58-21.32 5.87-31.89 9.37-4.66 1.54-9.36 3.1-13.73 5.39-2.42 1.26-5.02 2.22-5.96 5.03-.22.67-1.6 6.65-1.12 7.12 2.19 2.18 4.29 4.43 6.3 6.74 2.23-4 5.17-7.15 8.93-9.16 13.5-7.24 27.12-12.98 40.81-14.75 3.39-.44 6.4-.15 9.54.86 3.04.98 4.91 2.65 4.12 7.4-.97 5.84-1.46 11.76-2.07 17.65-.7 6.79-2.31 13.93-4.62 20.35-3.94 10.91-12.9 18.65-21.27 26.19-.05.05-.11.11-.12.18 0 .07.04.13.08.18.61.78 1.22 1.56 1.83 2.35 4.6-3.5 8.76-7.69 12.51-12.07s7.04-8.8 9.19-13.94c.31-.75.6-1.51.84-2.29 2.9-9.41 3.09-18.87 6.98-28.01 2.23-5.24 2.31-6.12 5.65-10.23.47-.58 1.02-1.31 1.22-2.05 1.42-5.28 2.91-10.56 4.06-15.9.63-2.9-.94-4.21-2.34-5.35-.95-.78-5.4.56-6.61.73-2.83.4-5.66.84-8.48 1.32-4.67.81-9.29 1.78-13.87 2.87Z" class="cls-3"/>
    <path d="M425.05 907.98c-6.11 0-12.17-1.63-17.52-4.72l-295.1-170.55c-9.79-5.53-15.96-15.67-16.51-27.12-.29-5.93-.56-10.2-.8-12.69-.1-1.09-.21-2.19-.54-3.07 0-.21.01-.46.02-.76.58-24.57 1.03-80.66 1.32-123.95 8.58-5.28 60.1-38.15 90.05-84.08 6.68-10.24 12.64-21.1 18.41-31.6 6.83-12.44 13.9-25.3 22.13-37.08 14.79-21.11 30.78-40.28 47.53-56.98 12.47-12.43 25.55-23.68 38.89-33.45 4.86-3.56 9.78-6.94 14.61-10.06 17.49-11.28 35.72-20.34 54.18-26.93 1.44-.51 2.9-1.02 4.35-1.5 3.28-1.1 6.59-2.13 9.86-3.06 17.33-4.98 35.09-7.9 52.79-8.7 3.39-.15 6.85-.23 10.26-.23 11.97 0 23.88.92 35.41 2.75 55.79 8.83 107.99 42.9 152.55 74.14 15.99 11.21 32.13 23.36 47.96 36.1 25.13 20.23 50.11 42.51 74.27 66.21 4.94 4.85 8.86 14.27 10.76 25.83 1.58 9.54 2.08 20.56 1.46 31.87-.62 11.21-2.27 22.15-4.92 32.51-4.03 15.79-10.27 29.44-18.03 39.46-6 7.75-12.97 13.48-20.73 17.02-.63.3-14.62 7.1-18.15 19.39-1.27 4.39-9.94 16.01-27.81 28.53-14.78 10.35-40.03 24.1-76.39 30.84l-8.06.96a12.084 12.084 0 0 1-2.76.02c-5.28-.56-15.97-1.49-28.2-1.49-21.06 0-37.74 2.65-49.59 7.87-6.49 2.86-11.54 6.53-15 10.92-9.48 12.02-16.45 43.16-25.28 82.58-7.56 33.76-16.13 72.02-28.33 107.52-4.83 14.05-18.12 23.49-33.08 23.49Z" class="cls-3"/>
    <path d="M459.98 273.96c11.83 0 23.61.91 35.02 2.72 55.26 8.74 107.18 42.64 151.5 73.72 15.95 11.18 32.04 23.29 47.83 36 25.06 20.18 49.99 42.41 74.08 66.05 4.5 4.42 8.26 13.56 10.05 24.46 1.55 9.36 2.04 20.19 1.43 31.32-.61 11.05-2.24 21.83-4.84 32.03-3.95 15.46-10.03 28.79-17.59 38.55-5.75 7.43-12.41 12.9-19.79 16.27l-.04.02-.04.02c-.64.3-15.6 7.58-19.44 20.94-2.4 8.31-35.38 45.18-102.18 57.59l-7.98.95c-.39.05-.78.07-1.17.07-.34 0-.69-.02-1.03-.05-5.33-.56-16.12-1.5-28.46-1.5-21.41 0-38.43 2.72-50.6 8.08-6.87 3.03-12.24 6.95-15.96 11.66-9.83 12.46-16.86 43.85-25.76 83.59-7.54 33.69-16.1 71.88-28.25 107.26-4.48 13.04-16.82 21.81-30.71 21.81-5.67 0-11.3-1.52-16.26-4.39L114.65 730.55c-9.02-5.1-14.71-14.46-15.23-25.05-.29-5.97.23-17.94-.01-20.47 0 0-.09-118 0-118.47 4.93-3.07 16.76-10.73 31.12-22.15 17.2-13.69 41.31-35.55 58.54-61.96 6.73-10.32 12.72-21.22 18.51-31.77 6.8-12.38 13.83-25.18 21.99-36.85 14.7-20.99 30.6-40.05 47.24-56.65 12.38-12.34 25.37-23.51 38.6-33.21 4.82-3.53 9.69-6.88 14.49-9.97 17.33-11.18 35.38-20.15 53.66-26.67 1.55-.55 2.96-1.04 4.32-1.49 3.23-1.09 6.51-2.1 9.76-3.02 17.13-4.92 34.69-7.82 52.2-8.6 3.36-.15 6.77-.23 10.15-.23m-.01-5.03c-3.47 0-6.93.08-10.37.23-18.06.81-35.99 3.8-53.36 8.79-3.35.95-6.67 1.98-9.97 3.09-1.47.49-2.94 1-4.4 1.52-19.22 6.86-37.54 16.12-54.69 27.18a302.66 302.66 0 0 0-14.73 10.14c-13.91 10.19-26.97 21.53-39.18 33.7-17.64 17.59-33.52 36.92-47.81 57.32-15.27 21.83-26.04 46.44-40.59 68.75-32.64 50.05-90.45 84.03-90.45 84.03-.77 119.34-1.47 127.1-1.34 127.1.02 0 .06-.17.12-.17.18 0 .57 1.65 1.22 15.07.59 12.14 7.18 23.18 17.76 29.16l295.1 170.55c5.96 3.45 12.42 5.06 18.77 5.06 15.34 0 30.03-9.43 35.44-25.18 26.36-76.72 36.17-167.77 53.21-189.37 3.41-4.32 8.28-7.64 14.05-10.18 13.75-6.06 32.56-7.66 48.59-7.66 11.93 0 22.33.89 27.93 1.48.52.05 1.04.08 1.56.08.59 0 1.18-.04 1.76-.1l8.14-.97c68-12.58 103.13-50.41 106.23-61.15 3.26-11.35 16.79-17.81 16.79-17.81 8.52-3.89 15.71-10.06 21.67-17.76 8.59-11.08 14.64-25.32 18.48-40.37 2.77-10.86 4.39-22.15 4.99-32.99.64-11.68.09-22.84-1.49-32.41-2.1-12.79-6.46-22.28-11.48-27.21-23.74-23.3-48.54-45.52-74.45-66.38-15.64-12.58-31.66-24.68-48.1-36.2-45.61-31.98-97.58-65.7-153.59-74.56-11.8-1.87-23.86-2.78-35.8-2.78Z" class="cls-4"/>
    <path d="M775.44 460.77c.05.16-14.06 32.24-35.97 24.59-21.91-7.65-40.25-22.06-44.27-11.71-4.02 10.35 3.61 34.03 25.95 37.87 22.33 3.84 7.97 67.87 7.97 67.87s17.45-23.46 19.18-64.02c0 0 24.41-1.34 28.14-28.53 3.73-27.19-.99-26.08-.99-26.08Z" class="cls-4"/>
    <path d="M483.75 422.79c3.48 12.42 11.01 22.62 25.17 25.49 20.9 4.24 42.23-2.1 57.12-17.4 16.57-17.03 27.7-43.34 28.39-67.07.23-7.89-4.01-13.58-11.84-15.16-22.33-4.5-45.35-1.51-67.19 4.12-7.32 1.89-14.56 4.69-20.71 9.16-6.88 5-9.79 11.8-11.4 20.06-2.36 12.08-3.21 27.68.47 40.8Z" class="cls-1"/>
    <path d="M754.87 589.48c-8.69 8.91-23.15 9.72-30.97-.81l4.59.82c-26.89 15.24-60.29 25.03-90.56 14.56-9.9-3.57-18.85-9.54-25.81-17.15l.69-.72c15.37 13.38 35.86 18.64 55.82 16.49 20.75-2.2 41.08-9.78 58.81-20.7l1.96 2.43c5.99 8.05 15.94 7.14 24.92 4.25l.56.83ZM301.54 489.33c.65 53.46 11.89 96.78 49.93 135.92 20.55 21.6 47.46 36.64 76.84 42.3-20.13-.99-40.1-7.78-57.31-18.82-25.75-16.71-45.64-41.8-57.76-69.87-11.81-28.15-14.14-59.51-11.69-89.52Z" class="cls-4"/>
    <path d="m605.49 332.38 30.48-2.51s11.08 7.4 7.35 11.13c-1 1-4 7.41-4.87 7.19-2.78-.71-29.67-.62-31.7 5.01-1.55 4.31-1.27-20.82-1.27-20.82ZM403.76 327.08c7.09-33.02-9.45-60.7-31.62-72.05-33.36-13.54-51.53 7.18-51.53 7.18s3.19 25.95-4.61 30.51c-7.81 4.56-5.32 32.25 3.55 48.37 8.87 16.12 28.39 44.46 28.39 44.46" class="cls-3"/>
    <path d="M403.76 327.08c3.55-20.54-1.88-42.71-16.38-57.92-4.39-4.85-10.94-9.54-16.06-12.12-2.12-.7-4.21-1.48-6.33-2.12-1.11-.28-3.78-.89-4.85-1.16-1.05-.19-3.8-.53-4.91-.69-1.57-.17-3.34-.12-4.92-.22-9.72.05-19.56 3.39-26.78 9.98-.36.27-.72.72-1.05 1.02l.6-1.95c.77 8.81 1.36 17.66-1.22 26.33-.56 1.67-1.44 3.53-2.78 5.02-.65.69-1.51 1.27-2.3 1.8-.96.86-1.5 1.99-2 3.42-1.2 3.74-1.33 7.8-1.22 11.79.52 10.92 3.02 22.02 8.33 31.67 8.1 14.86 17.21 29.17 26.06 43.62-6.84-9.03-13.37-18.27-19.72-27.66-4.62-7.18-9.73-14.21-13.13-22.11-4.43-9.85-10.62-37.11-.77-44.79.53-.36 1.1-.74 1.47-1.28 4.21-6.42 3.03-19.59 2.34-27.21l-.13-1.13.73-.82c8.58-8.75 21.27-13.02 33.39-12.41 2.81.05 6.16.61 8.93 1.11 1.15.28 4.02 1.06 5.2 1.35 2.32.76 4.6 1.62 6.88 2.48 26.27 13.93 38.34 45.76 30.63 73.98Z" class="cls-4"/>
    <path d="M350.74 258.94c17.58.25 31.56 14.61 36.75 30.59 5.24 16.02 4.54 33.28.55 49.38-.02-16.13-.19-32.49-5.28-47.78-4.85-15.04-16.4-28.19-32.02-32.2ZM517.94 713.64c-30.64 55.33-67.46 106.52-100.2 160.5 21.07-42.19 44.23-83.35 65.62-125.34 7.09-13.96 14-28 20.19-42.15l14.39 6.99ZM196.51 437.92c15.29-13.48 31.2-25.44 47.55-37.36 16.27-11.61 32.71-23.14 50.25-32.73-16.03 11.79-30.66 25.3-45.15 38.89-14.18 13.57-28.44 27.64-41.22 42.38-2.88 3.39-7.97 3.79-11.34.89-3.67-3.11-3.72-8.91-.1-12.08ZM174.61 475.73c15.68-13.64 32.31-24.56 49.45-35.79 16.9-10.82 34.02-21.31 51.69-30.8-16.19 11.71-31.69 24.32-46.91 37.22-14.75 12.74-30.06 26.07-42.78 40.55-2.88 3.41-7.99 3.81-11.37.89-3.67-3.12-3.69-8.92-.07-12.08ZM88.78 690.18c19.21-17.55 39.77-33.47 60.25-49.47 17.97-13.74 35.98-27.48 54.89-39.92 2.68-1.8 5.48-3.43 8.24-5.1-2.63 1.88-5.28 3.71-7.81 5.71-17.83 13.82-34.68 28.87-51.47 43.91-18.92 17.3-37.98 34.57-55.51 53.25-5.77 6.04-14.52-2.41-8.58-8.39ZM112.82 732.13c19.21-17.55 39.77-33.47 60.25-49.47 17.97-13.74 35.98-27.48 54.89-39.92 2.68-1.8 5.48-3.43 8.24-5.1-2.63 1.88-5.28 3.71-7.81 5.71-17.83 13.82-34.68 28.87-51.47 43.91-18.92 17.3-37.98 34.57-55.51 53.25-5.77 6.04-14.52-2.41-8.58-8.39Z" class="cls-4"/>
    <path d="M514.43 292.48c-11.24-6.25-22.3-12.44-34.16-17.34-11.76-4.92-24.13-8.64-36.62-11.98 12.85 1.38 25.73 3.14 38.48 6.28 12.69 3.06 25.12 7.64 37.29 12.14 7.91 3.34 2.72 14.71-5 10.91Z" class="cls-3"/>
    <path d="M476.09 286.62c-21.27-8.59-43.84-14.64-67.08-17.66 23.42-.98 47.22 1.13 70.61 6.19 8.36 2.25 4.66 14.31-3.53 11.47Z" class="cls-3"/>
  </g>
</svg>
