<svg width="31" height="31" viewBox="0 0 31 31" fill="none" xmlns="http://www.w3.org/2000/svg">
<path fill-rule="evenodd" clip-rule="evenodd" d="M22.4352 18.0641C22.0619 17.8773 20.2269 16.9745 19.8848 16.8498C19.5427 16.7252 19.2939 16.6631 19.0451 17.0366C18.7963 17.4102 18.081 18.251 17.8633 18.5C17.6456 18.7491 17.4278 18.7804 17.0547 18.5934C16.6814 18.4067 15.4788 18.0126 14.0532 16.7409C12.9437 15.7513 12.1946 14.5291 11.9769 14.1554C11.7592 13.7818 11.9537 13.5798 12.1405 13.3937C12.3085 13.2265 12.5138 12.9578 12.7004 12.7398C12.8871 12.522 12.9492 12.3662 13.0736 12.1172C13.198 11.868 13.1359 11.6501 13.0425 11.4633C12.9492 11.2765 12.2028 9.43939 11.8918 8.69197C11.5888 7.9643 11.2811 8.06285 11.052 8.05131C10.8346 8.04053 10.5854 8.03824 10.3367 8.03824C10.0879 8.03824 9.68351 8.13164 9.34139 8.50518C8.99932 8.87883 8.03515 9.78187 8.03515 11.6188C8.03515 13.4561 9.3725 15.2307 9.55912 15.4798C9.74574 15.729 12.1909 19.4988 15.9351 21.1154C16.8254 21.5 17.5207 21.7297 18.0627 21.9016C18.9568 22.1858 19.7704 22.1457 20.4136 22.0495C21.1306 21.9425 22.6217 21.1467 22.9328 20.275C23.2437 19.403 23.2437 18.6557 23.1505 18.5C23.0572 18.3444 22.8084 18.251 22.4352 18.0641ZM15.6252 27.3625H15.6201C13.3923 27.3616 11.2072 26.7631 9.30107 25.632L8.84767 25.3629L4.14881 26.5955L5.40301 22.0141L5.10787 21.5443C3.86504 19.5677 3.20861 17.283 3.20961 14.9371C3.21236 8.09191 8.78187 2.52287 15.6301 2.52287C18.9462 2.52398 22.0634 3.81709 24.4075 6.16383C26.7515 8.51051 28.0416 11.6298 28.0404 14.9471C28.0375 21.7929 22.4681 27.3625 15.6252 27.3625ZM26.1915 4.38064C23.3713 1.55725 19.6209 0.00164063 15.625 0C7.39174 0 0.690897 6.70043 0.687557 14.9362C0.686502 17.5689 1.37428 20.1385 2.6815 22.4038L0.562401 30.1442L8.48082 28.0671C10.6626 29.2571 13.119 29.8843 15.6191 29.8852H15.6252C23.8576 29.8852 30.559 23.184 30.5624 14.9481C30.5639 10.9569 29.0116 7.20404 26.1915 4.38064Z" fill="#F3F2F7"/>
</svg>
